<?xml version="1.0" encoding="UTF-8" standalone="no"?>
<!-- Created with Inkscape (http://www.inkscape.org/) -->

<svg
   xmlns:dc="http://purl.org/dc/elements/1.1/"
   xmlns:cc="http://creativecommons.org/ns#"
   xmlns:rdf="http://www.w3.org/1999/02/22-rdf-syntax-ns#"
   xmlns:svg="http://www.w3.org/2000/svg"
   xmlns="http://www.w3.org/2000/svg"
   xmlns:sodipodi="http://sodipodi.sourceforge.net/DTD/sodipodi-0.dtd"
   xmlns:inkscape="http://www.inkscape.org/namespaces/inkscape"
   width="210mm"
   height="297mm"
   id="svg2"
   version="1.1"
   inkscape:version="0.48.4 r9939"
   sodipodi:docname="shinynew_icons.svg">
  <defs
     id="defs4" />
  <sodipodi:namedview
     id="base"
     pagecolor="#ffffff"
     bordercolor="#666666"
     borderopacity="1.0"
     inkscape:pageopacity="0.0"
     inkscape:pageshadow="2"
     inkscape:zoom="0.175"
     inkscape:cx="1479.6008"
     inkscape:cy="769.69633"
     inkscape:document-units="px"
     inkscape:current-layer="g4164"
     showgrid="false"
     inkscape:window-width="1920"
     inkscape:window-height="1018"
     inkscape:window-x="1042"
     inkscape:window-y="122"
     inkscape:window-maximized="1"
     showguides="false">
    <inkscape:grid
       type="xygrid"
       id="grid4162" />
  </sodipodi:namedview>
  <metadata
     id="metadata7">
    <rdf:RDF>
      <cc:Work
         rdf:about="">
        <dc:format>image/svg+xml</dc:format>
        <dc:type
           rdf:resource="http://purl.org/dc/dcmitype/StillImage" />
        <dc:title></dc:title>
      </cc:Work>
    </rdf:RDF>
  </metadata>
  <g
     inkscape:label="Ebene 1"
     inkscape:groupmode="layer"
     id="layer1">
    <g
       id="g4164">
      <rect
         y="341.91406"
         x="-186.00647"
         height="1000"
         width="1000"
         id="rect3783-2"
         style="color:#000000;fill:#0cc8fc;fill-opacity:1;fill-rule:nonzero;stroke:none;stroke-width:3;marker:none;visibility:visible;display:inline;overflow:visible;enable-background:accumulate"
         inkscape:export-filename="C:\Users\Till\ownCloud\Privat\raumfeld\rfwrpy\images\podcast_www.png"
         inkscape:export-xdpi="150"
         inkscape:export-ydpi="150" />
      <g
         id="g3883"
         transform="translate(80.812204,-1660.6908)">
        <rect
           style="color:#000000;fill:#0cc8fc;fill-opacity:1;fill-rule:nonzero;stroke:none;stroke-width:3;marker:none;visibility:visible;display:inline;overflow:visible;enable-background:accumulate"
           id="rect3783-3"
           width="1000"
           height="1000"
           x="-1457.4675"
           y="358.07648" />
        <path
           style="fill:#808080"
           d="m -1222,764.9217 0,-242.48806 154.3105,0 154.3106,0 0,242.48806 0,242.4881 -154.3106,0 -154.3105,0 0,-242.4881 z M -992.1088,928.68 c 66.8542,-66.8543 18.4685,-185.8026 -75.5807,-185.8026 -52.5988,0 -110.2219,57.6231 -110.2219,110.2217 0,94.0494 118.9485,142.4349 185.8026,75.5809 z m -133.1487,-40.9681 c -21.9489,-57.1978 8.8152,-104.4724 62.9805,-96.7809 36.4335,5.1736 49.6985,21.7668 49.6985,62.1681 0,40.4016 -13.265,56.9947 -49.6985,62.1684 -29.8101,4.2329 -55.0137,-6.7941 -62.9805,-27.5556 z m 112.679,-255.0564 c 0,-40.40138 -13.265,-56.99463 -49.6985,-62.16821 -54.1653,-7.6915 -84.9294,39.58309 -62.9805,96.78095 7.9668,20.76144 33.1704,31.78846 62.9805,27.55546 36.4335,-5.17358 49.6985,-21.76679 49.6985,-62.1682 z m -77.1553,0 c 0,-12.12441 9.92,-22.04438 22.0443,-22.04438 12.1244,0 22.0444,9.91997 22.0444,22.04438 0,12.1244 -9.92,22.04437 -22.0444,22.04437 -12.1243,0 -22.0443,-9.91997 -22.0443,-22.04437 z m 198.3994,355.4655 c 0,-10.6089 28.9621,-25.0811 64.3601,-32.1607 117.16524,-23.4332 117.16524,-182.289 0,-205.7221 -75.4046,-15.0808 -87.287,-66.78141 -14.7603,-64.22206 38.6771,1.36453 49.5998,-10.38628 49.5998,-53.36064 0,-42.97441 -10.9227,-54.72538 -49.5998,-53.36061 -27.4413,0.96775 -49.5998,-11.34182 -49.5998,-27.55547 0,-20.03656 31.3762,-29.30578 99.1996,-29.30578 l 99.19971,0 0,242.48806 0,242.4881 -99.19971,0 c -54.5599,0 -99.1996,-8.68 -99.1996,-19.2888 z m 8.5971,-100.326 c -20.0561,-52.2647 8.3217,-105.0488 51.9582,-96.6451 24.4037,4.6996 38.6443,27.5283 38.6443,61.9492 0,62.8405 -69.5782,89.4851 -90.6025,34.6959 z m 13.4472,-255.1395 c 0,-12.12441 9.9199,-22.04438 22.0445,-22.04438 12.1243,0 22.0442,9.91997 22.0442,22.04438 0,12.1244 -9.9199,22.04437 -22.0442,22.04437 -12.1246,0 -22.0445,-9.91997 -22.0445,-22.04437 z"
           id="path3882"
           inkscape:connector-curvature="0" />
      </g>
      <rect
         y="358.07648"
         x="951.42859"
         height="1000"
         width="1000"
         id="rect3783"
         style="color:#000000;fill:#0cc8fc;fill-opacity:1;fill-rule:nonzero;stroke:none;stroke-width:3;marker:none;visibility:visible;display:inline;overflow:visible;enable-background:accumulate"
         inkscape:export-filename="C:\Users\Till\ownCloud\Privat\raumfeld\rfwrpy\images\add_Favorite.png"
         inkscape:export-xdpi="150"
         inkscape:export-ydpi="150" />
      <text
         xml:space="preserve"
         style="font-size:40px;font-style:normal;font-variant:normal;font-weight:normal;font-stretch:normal;line-height:125%;letter-spacing:0px;word-spacing:0px;fill:#808080;fill-opacity:1;stroke:none;font-family:DejaVu Serif;-inkscape-font-specification:DejaVu Serif"
         x="1025.3104"
         y="1270.6479"
         id="text4181"
         sodipodi:linespacing="125%"><tspan
           sodipodi:role="line"
           id="tspan4183"
           x="1025.3104"
           y="1270.6479"
           style="font-size:140px;font-style:normal;font-variant:normal;font-weight:bold;font-stretch:normal;fill:#808080;font-family:Aharoni;-inkscape-font-specification:Aharoni Bold">Add Favorite</tspan></text>
      <g
         id="g3844"
         transform="translate(2434.0374,1160.2521)">
        <path
           inkscape:connector-curvature="0"
           id="path4135-1"
           d="m -906.49107,-471.65625 -230.84373,183.96875 c 1.4546,33.9309 -11.2402,76.91316 -35.7188,140.21875 -16.3744,42.3475 -12.2108,44.98685 30.9375,19.46875 27.4246,-16.2187 74.1873,-47.04074 103.9063,-68.5 49.20118,-35.52712 61.93953,-33.19565 142.34373,26.125 48.5666,35.8316 91.7059,61.7322 95.875,57.5625 4.1692,-4.1696 -6.1971,-52.55146 -23.0625,-107.5 -29.7871,-97.05949 -28.08855,-102.02913 59.84375,-174.9375 l 90.5,-75.0625 -121.4375,-0.6875 -112.34375,-0.65625 z"
           style="fill:#808080" />
        <path
           inkscape:connector-curvature="0"
           id="path4135-1-4"
           d="m -985.70983,-679.04911 c -5.17112,0.35426 -11.35591,11.953 -21.28127,34.96875 -12.6171,29.25686 -32.2703,81.71888 -43.6562,116.5625 -18.8498,57.68554 -30.5205,63.29291 -130.4375,62.6875 -60.353,-0.36578 -110.4916,4.0812 -111.4063,9.90625 -0.9148,5.82503 35.983,38.82921 81.9688,73.3125 81.225,60.91232 82.7701,65.92012 54.625,176.625 l -11,43.25 388.37497,-309.53125 c -123.41284,3.75089 -151.11156,-21.8685 -192.03125,-175.3125 -5.84962,-21.93491 -9.98513,-32.82301 -15.15625,-32.46875 z"
           style="fill:#808080" />
      </g>
      <path
         style="fill:#808080"
         d="m 275.63196,912.16652 c 9.88113,-92.26722 6.72894,-141.76863 -10.33404,-162.329 -30.49206,-36.74065 -10.77071,-72.1743 40.17038,-72.1743 50.94188,0 70.66323,35.43365 40.17118,72.1743 -17.06299,20.56037 -20.21517,70.06178 -10.33404,162.329 13.58015,126.79778 12.24165,132.74808 -29.83714,132.74808 -42.07799,0 -43.41649,-5.9503 -29.83634,-132.74808 z M 71.36058,841.8993 c -39.66927,-76.71068 -39.66927,-170.15004 0,-246.86072 33.26888,-64.33694 85.88387,-85.68568 60.35786,-24.49036 -65.2158,156.33812 -65.2158,139.50331 0,295.84143 25.52601,61.19532 -27.08898,39.84658 -60.35786,-24.49035 z m 407.85838,24.49035 c 65.2158,-156.33812 65.2158,-139.50331 0,-295.84143 -8.83237,-21.17409 -5.91467,-35.705 7.16752,-35.705 33.04457,0 84.31901,111.6626 84.31901,183.62572 0,71.96312 -51.27444,183.62572 -84.31901,183.62572 -13.08219,0 -15.99989,-14.53092 -7.16752,-35.70501 z M 164.53838,803.61211 c -30.23703,-56.50163 -28.04987,-130.67908 5.19862,-176.14725 37.91063,-51.84795 61.19441,-8.05384 30.97776,58.26667 -18.47885,40.55477 -17.83014,58.95835 2.95638,84.0051 18.82764,22.68675 20.26006,38.43225 4.89058,53.80172 -15.36949,15.36948 -28.25396,9.53792 -44.02334,-19.92624 z m 234.10167,19.06831 c -8.29175,-13.41325 -3.75219,-38.0291 10.08506,-54.70231 19.38672,-23.35781 19.72963,-42.23269 1.48941,-82.24658 -13.01294,-28.56257 -17.5525,-61.81597 -10.08713,-73.8967 20.10087,-32.52379 68.55567,42.84437 68.55567,106.63411 0,67.33799 -48.36915,139.29418 -70.05129,104.21148 z"
         id="path3859"
         inkscape:connector-curvature="0" />
      <rect
         y="341.91406"
         x="-1615.2085"
         height="1000"
         width="1000"
         id="rect3783-3-9"
         style="color:#000000;fill:#0cc8fc;fill-opacity:1;fill-rule:nonzero;stroke:none;stroke-width:3;marker:none;visibility:visible;display:inline;overflow:visible;enable-background:accumulate"
         inkscape:export-filename="C:\Users\Till\ownCloud\Privat\raumfeld\rfwrpy\images\audio_www.png"
         inkscape:export-xdpi="150"
         inkscape:export-ydpi="150" />
      <path
         inkscape:connector-curvature="0"
         id="path3856"
         d="m -1242.7346,1067.5648 c -112.9909,-49.6274 -177.6918,-152.76492 -177.6918,-283.25292 0,-106.6409 11.8412,-136.2307 82.9879,-207.3774 71.426,-71.4258 100.5349,-82.9879 208.9343,-82.9879 108.3992,0 137.50838,11.5621 208.93409,82.9879 71.42577,71.426 82.98787,100.5349 82.98787,208.9343 0,106.9392 -11.8505,137.7966 -78.52397,204.47044 -83.81411,83.81408 -232.71669,118.91198 -327.62839,77.22558 z m 280.38348,-115.54282 c 63.68038,-63.6801 80.99208,-115.3842 38.63371,-115.3842 -13.0207,0 -30.7396,22.2618 -39.37521,49.4707 -8.6358,27.2087 -37.96328,56.5362 -65.17198,65.1718 -27.2089,8.6358 -49.4706,26.35474 -49.4706,39.37544 0,42.35838 51.7039,25.04658 115.38408,-38.63374 z m -53.73598,-53.7361 c 35.33628,-35.3362 54.11978,-87.0326 31.62248,-87.0326 -4.5469,0 -35.09558,28.5576 -67.88608,63.4614 -64.0177,68.1437 -30.2548,90.0896 36.2636,23.5712 z m -48.9559,-112.4171 c 0,-46.523 -15.2749,-65.6305 -57.2286,-71.588 -62.3726,-8.8569 -97.798,45.5807 -72.5233,111.4452 9.1739,23.9072 38.1963,36.6051 72.5233,31.7307 41.9537,-5.9575 57.2286,-25.0649 57.2286,-71.5879 z m -113.5744,-147.8579 c -38.5558,-12.8519 -102.194,44.3943 -102.194,91.9296 0,29.9642 15.5515,24.7835 64.9706,-21.6433 35.7341,-33.5706 52.4846,-65.1992 37.2234,-70.2863 z m -115.2985,47.6181 c 8.6358,-27.2087 37.9633,-56.5362 65.1719,-65.172 51.7954,-16.439 68.7485,-63.0491 22.9324,-63.0491 -34.458,0 -151.1534,116.6955 -151.1534,151.1535 0,45.816 46.61,28.863 63.0491,-22.9324 z"
         style="fill:#808080"
         inkscape:export-filename="C:\Users\Till\ownCloud\Privat\raumfeld\rfwrpy\images\audio_www.png"
         inkscape:export-xdpi="150"
         inkscape:export-ydpi="150" />
      <rect
         y="358.07648"
         x="2408.5715"
         height="1000"
         width="1000"
         id="rect3783-2-8"
         style="color:#000000;fill:#0cc8fc;fill-opacity:1;fill-rule:nonzero;stroke:none;stroke-width:3;marker:none;visibility:visible;display:inline;overflow:visible;enable-background:accumulate"
         inkscape:export-filename="C:\Users\Till\ownCloud\Privat\raumfeld\rfwrpy\images\podcast2_www.png"
         inkscape:export-xdpi="150"
         inkscape:export-ydpi="150" />
      <g
         id="g3956"
         transform="translate(1860.8228,-1293.2316)"
         inkscape:export-filename="C:\Users\Till\ownCloud\Privat\raumfeld\rfwrpy\images\podcast2_www.png"
         inkscape:export-xdpi="150"
         inkscape:export-ydpi="150">
        <path
           inkscape:connector-curvature="0"
           id="path3900"
           d="m 844.42547,2202.0951 c 0,-87.9064 6.47013,-103.8363 39.57609,-97.4612 29.77026,5.7329 39.57609,29.8788 39.57609,97.4612 0,67.5824 -9.80583,91.7284 -39.57609,97.4612 -33.10596,6.3774 -39.57609,-9.5547 -39.57609,-97.4612 z m 325.51893,69.7557 c -23.4018,-60.9879 1.3343,-159.6273 41.9733,-167.3345 33.0155,-6.2598 39.5761,9.6385 39.5761,95.9211 0,77.7998 -8.5801,103.4248 -34.6325,103.4248 -19.0462,0 -40.1595,-14.4057 -46.9169,-32.0114 z M 776.58076,2087.8989 c 0,-193.9499 98.34318,-304.1795 271.37894,-304.1795 116.8761,0 188.4726,40.9668 237.5853,135.9405 37.9185,73.3243 46.0734,271.1278 11.1786,271.1278 -12.4382,0 -22.6149,-46.5777 -22.6149,-103.5061 0,-84.2497 -12.298,-115.8065 -66.1056,-169.6119 -149.7017,-149.7016 -386.19253,-45.8381 -386.19253,169.6119 0,56.9284 -10.1767,103.5061 -22.6149,103.5061 -12.4382,0 -22.61491,-46.2996 -22.61491,-102.8888 z"
           style="fill:#808080" />
        <path
           inkscape:connector-curvature="0"
           id="path3859-4"
           d="m 1035.6586,2284.4974 c 3.5796,-33.4252 2.4377,-51.3578 -3.7437,-58.8061 -11.0461,-13.3099 -3.9018,-26.1463 14.5524,-26.1463 18.4544,0 25.5988,12.8364 14.5526,26.1463 -6.1813,7.4483 -7.3233,25.3809 -3.7437,58.8061 4.9197,45.9344 4.4347,48.09 -10.8089,48.09 -15.2434,0 -15.7283,-2.1556 -10.8087,-48.09 z m -74.00036,-25.4554 c -14.3708,-27.7896 -14.3708,-61.6394 0,-89.4289 12.05216,-23.3071 31.1127,-31.041 21.86553,-8.8721 -23.62542,56.6359 -23.62542,50.5372 0,107.173 9.24717,22.169 -9.81337,14.435 -21.86553,-8.872 z m 147.75286,8.872 c 23.6254,-56.6358 23.6254,-50.5371 0,-107.173 -3.1997,-7.6706 -2.1427,-12.9346 2.5966,-12.9346 11.9708,0 30.5457,40.4514 30.5457,66.5211 0,26.0697 -18.5749,66.5212 -30.5457,66.5212 -4.7393,0 -5.7963,-5.2641 -2.5966,-12.9347 z m -113.9978,-22.7421 c -10.95384,-20.4686 -10.16149,-47.3405 1.88328,-63.812 13.73372,-18.7827 22.16862,-2.9176 11.22222,21.108 -6.6943,14.6916 -6.4593,21.3586 1.0709,30.4321 6.8207,8.2187 7.3395,13.9227 1.7717,19.4905 -5.5678,5.5678 -10.2354,3.4553 -15.9481,-7.2186 z m 84.8068,6.9078 c -3.0037,-4.8591 -1.3592,-13.7766 3.6535,-19.8167 7.0231,-8.4617 7.1473,-15.2995 0.5396,-29.7951 -4.7141,-10.3472 -6.3587,-22.3938 -3.6542,-26.7702 7.2818,-11.7822 24.8353,15.5211 24.8353,38.6298 0,24.3942 -17.5224,50.4615 -25.3771,37.7522 z"
           style="fill:#808080" />
      </g>
    </g>
  </g>
</svg>
